 <svg width="16" height="16" viewBox="0 0 16 16" fill="none" xmlns="http://www.w3.org/2000/svg">
                                                <g clip-path="url(#clip0)">
                                                    <path d="M8.21733 0C3.83133 0.000666667 1.5 2.81067 1.5 5.87467C1.5 7.29533 2.294 9.068 3.56533 9.63C3.928 9.79333 3.88 9.594 4.192 8.40067C4.21667 8.30133 4.204 8.21533 4.124 8.12267C2.30667 6.02067 3.76933 1.69933 7.958 1.69933C14.02 1.69933 12.8873 10.0873 9.01267 10.0873C8.014 10.0873 7.27 9.30333 7.50533 8.33333C7.79067 7.178 8.34933 5.936 8.34933 5.10333C8.34933 3.00467 5.22267 3.316 5.22267 6.09667C5.22267 6.956 5.52667 7.536 5.52667 7.536C5.52667 7.536 4.52067 11.6 4.334 12.3593C4.018 13.6447 4.37667 15.7253 4.408 15.9047C4.42733 16.0033 4.538 16.0347 4.6 15.9533C4.69933 15.8233 5.91533 14.0887 6.256 12.8347C6.38 12.378 6.88867 10.5247 6.88867 10.5247C7.224 11.13 8.19067 11.6367 9.22067 11.6367C12.2847 11.6367 14.4993 8.94333 14.4993 5.60133C14.4887 2.39733 11.7467 0 8.21733 0V0Z" fill="currentColor"/>
                                                </g>
                                                <defs>
                                                    <clipPath id="clip0">
                                                        <rect width="16" height="16" fill="white"/>
                                                    </clipPath>
                                                </defs>
                                            </svg>  